<mxfile host="app.diagrams.net" modified="2023-05-17T15:51:55.961Z" agent="Mozilla/5.0 (Macintosh; Intel Mac OS X 10_15_7) AppleWebKit/537.36 (KHTML, like Gecko) Chrome/112.0.0.0 Safari/537.36" version="21.1.4" etag="Sl6QgVQYdYb-TrWuPrsw" type="github">
  <diagram name="PÃ¡gina-1" id="o6g6Lvcr8jv5iswfuTwv">
    <mxGraphModel>
      <root>
        <mxCell id="0" />
        <mxCell id="1" parent="0" />
      </root>
    </mxGraphModel>
  </diagram>
</mxfile>
